<?xml version="1.0" standalone="no"?>
<!DOCTYPE svg PUBLIC "-//W3C//DTD SVG 20010904//EN"
 "http://www.w3.org/TR/2001/REC-SVG-20010904/DTD/svg10.dtd">
<svg version="1.0" xmlns="http://www.w3.org/2000/svg"
 width="177.000000pt" height="177.000000pt" viewBox="0 0 177.000000 177.000000"
 preserveAspectRatio="xMidYMid meet">
<metadata>
Created by potrace 1.14, written by Peter Selinger 2001-2017
</metadata>
<g transform="translate(0.000000,177.000000) scale(0.100000,-0.100000)"
fill="#000000" stroke="none">
<path d="M725 1550 c-132 -26 -316 -164 -331 -248 -4 -21 -13 -50 -21 -66 -9
-17 -13 -46 -11 -75 5 -57 38 -219 49 -246 21 -48 39 -109 39 -131 0 -13 16
-74 36 -136 29 -88 51 -132 103 -209 65 -96 139 -183 162 -191 9 -3 9 -13 -1
-42 -6 -20 -10 -39 -8 -42 3 -2 32 -7 66 -10 47 -5 73 -3 107 10 25 10 45 20
45 22 0 16 -33 79 -47 89 -15 11 -15 13 6 25 47 25 141 102 181 148 42 49 100
154 100 181 0 9 10 21 23 26 26 12 68 96 99 201 22 73 22 76 4 108 -14 27 -17
46 -11 97 13 121 -46 287 -111 319 -21 10 -39 31 -54 63 -28 58 -57 82 -123
102 -54 16 -231 19 -302 5z m303 -195 c23 -9 42 -21 42 -25 0 -4 15 -23 33
-42 46 -49 112 -248 102 -306 -5 -30 -12 -42 -28 -46 -36 -9 -47 -7 -40 9 3 9
-3 25 -13 36 -53 59 -144 66 -217 18 -54 -36 -64 -48 -47 -59 14 -8 -35 -20
-86 -20 -25 0 -45 10 -74 36 -43 39 -123 74 -169 74 -34 0 -61 -23 -61 -50 0
-16 9 -20 63 -23 l62 -3 -67 -2 -68 -2 0 98 c0 72 5 107 19 137 23 51 33 59
106 80 33 9 85 32 116 51 99 60 117 65 204 60 44 -2 99 -12 123 -21z m49 -398
c18 -10 6 -12 -77 -12 -54 0 -97 1 -96 3 6 5 91 20 121 21 17 0 40 -5 52 -12z
m240 -22 c2 -11 0 -14 -3 -7 -9 20 -31 14 -53 -14 -28 -36 -27 -21 1 17 25 33
51 35 55 4z m-390 -40 c-20 -14 -37 -30 -37 -35 0 -16 16 -11 35 10 22 24 65
29 45 5 -10 -12 -9 -16 5 -21 23 -9 50 9 49 31 -2 15 0 15 15 1 18 -16 41 -21
41 -10 0 4 -8 13 -17 21 -17 14 -17 14 0 9 10 -3 23 -6 29 -6 16 0 3 -99 -15
-118 -21 -20 -123 -28 -171 -12 -61 20 -98 90 -62 119 11 10 70 25 111 30 5 1
-7 -10 -28 -24z m368 -32 c-3 -32 -15 -76 -25 -98 -10 -22 -21 -50 -25 -63 -4
-15 -17 -25 -35 -29 -24 -4 -30 -11 -35 -47 -9 -51 -60 -136 -118 -197 -34
-36 -58 -51 -102 -63 l-57 -17 -24 26 c-16 17 -24 38 -24 61 0 32 -2 34 -34
34 -19 0 -43 -8 -55 -17 -19 -16 -20 -23 -11 -52 5 -19 7 -37 5 -40 -3 -2 -21
3 -40 12 -20 9 -43 17 -53 17 -42 0 -147 200 -182 347 l-8 33 25 -20 c34 -26
166 -29 202 -4 23 16 23 16 16 -7 -4 -13 -14 -36 -22 -52 -17 -33 -4 -63 33
-77 19 -7 34 -5 62 10 20 11 44 20 53 20 9 0 22 7 29 15 10 13 10 19 -5 35
-18 20 -45 27 -45 12 0 -5 10 -14 23 -19 21 -11 21 -11 2 -18 -11 -3 -35 -13
-53 -21 -78 -33 -98 -13 -66 67 14 33 27 80 31 105 7 53 32 58 45 9 4 -17 23
-46 43 -65 30 -29 43 -34 95 -38 134 -10 173 11 188 99 6 36 13 45 40 56 l32
13 0 -50 c0 -27 4 -50 10 -50 5 0 7 -8 3 -17 -5 -14 1 -12 21 7 23 21 26 30
21 59 -5 26 -2 38 16 57 12 13 24 24 27 24 2 0 1 -26 -3 -57z m-771 32 c-7
-18 7 -20 23 -4 7 7 20 9 30 5 15 -6 15 -8 3 -16 -11 -7 -12 -12 -3 -21 17
-17 48 -6 51 19 3 19 6 20 24 11 23 -12 39 -2 18 11 -8 6 -10 10 -4 10 7 0 22
-8 34 -18 19 -15 22 -25 16 -54 -11 -58 -38 -78 -106 -78 -32 0 -70 4 -85 10
-41 16 -75 120 -42 133 26 11 46 7 41 -8z m339 -650 c-3 -9 -8 -14 -10 -11 -3
3 -2 9 2 15 9 16 15 13 8 -4z"/>
<path d="M892 563 c-34 -24 -161 -30 -201 -10 -25 12 -31 13 -31 2 0 -17 51
-35 109 -37 37 -1 40 -2 13 -5 -18 -2 -30 -9 -27 -14 11 -16 60 -10 78 11 9
11 25 20 35 20 21 0 62 27 62 41 0 13 -11 11 -38 -8z"/>
</g>
</svg>
